<mxfile host="app.diagrams.net" agent="Mozilla/5.0 (Windows NT 10.0; Win64; x64) AppleWebKit/537.36 (KHTML, like Gecko) Chrome/131.0.0.0 Safari/537.36" version="26.0.6">
  <diagram name="페이지-1" id="dXkecmHCMWZ0PJQJGGgc">
    <mxGraphModel dx="1434" dy="780" grid="1" gridSize="10" guides="1" tooltips="1" connect="1" arrows="1" fold="1" page="1" pageScale="1" pageWidth="827" pageHeight="1169" math="0" shadow="0">
      <root>
        <mxCell id="0" />
        <mxCell id="1" parent="0" />
        <mxCell id="igjqlshMGf3NSqNS0H5_-6" value="" style="edgeStyle=orthogonalEdgeStyle;rounded=0;orthogonalLoop=1;jettySize=auto;html=1;" edge="1" parent="1" source="igjqlshMGf3NSqNS0H5_-2" target="igjqlshMGf3NSqNS0H5_-4">
          <mxGeometry relative="1" as="geometry" />
        </mxCell>
        <mxCell id="igjqlshMGf3NSqNS0H5_-2" value="&lt;font style=&quot;font-size: 15px;&quot;&gt;시작&lt;/font&gt;" style="strokeWidth=2;html=1;shape=mxgraph.flowchart.terminator;whiteSpace=wrap;" vertex="1" parent="1">
          <mxGeometry x="427" y="200" width="100" height="60" as="geometry" />
        </mxCell>
        <mxCell id="igjqlshMGf3NSqNS0H5_-3" value="&lt;font style=&quot;font-size: 15px;&quot;&gt;끝&lt;/font&gt;" style="strokeWidth=2;html=1;shape=mxgraph.flowchart.terminator;whiteSpace=wrap;" vertex="1" parent="1">
          <mxGeometry x="427" y="880" width="100" height="60" as="geometry" />
        </mxCell>
        <mxCell id="igjqlshMGf3NSqNS0H5_-8" value="" style="edgeStyle=orthogonalEdgeStyle;rounded=0;orthogonalLoop=1;jettySize=auto;html=1;" edge="1" parent="1" source="igjqlshMGf3NSqNS0H5_-4" target="igjqlshMGf3NSqNS0H5_-7">
          <mxGeometry relative="1" as="geometry" />
        </mxCell>
        <mxCell id="igjqlshMGf3NSqNS0H5_-4" value="&lt;font style=&quot;font-size: 15px;&quot;&gt;로그인 페이지&lt;/font&gt;" style="strokeWidth=2;html=1;shape=mxgraph.flowchart.document2;whiteSpace=wrap;size=0.25;" vertex="1" parent="1">
          <mxGeometry x="427" y="310" width="100" height="60" as="geometry" />
        </mxCell>
        <mxCell id="igjqlshMGf3NSqNS0H5_-5" value="로그인 Flow-Chart" style="text;html=1;align=center;verticalAlign=middle;resizable=0;points=[];autosize=1;strokeColor=none;fillColor=none;" vertex="1" parent="1">
          <mxGeometry x="383" y="160" width="120" height="30" as="geometry" />
        </mxCell>
        <mxCell id="igjqlshMGf3NSqNS0H5_-12" value="" style="edgeStyle=orthogonalEdgeStyle;rounded=0;orthogonalLoop=1;jettySize=auto;html=1;" edge="1" parent="1" source="igjqlshMGf3NSqNS0H5_-7" target="igjqlshMGf3NSqNS0H5_-9">
          <mxGeometry relative="1" as="geometry" />
        </mxCell>
        <mxCell id="igjqlshMGf3NSqNS0H5_-7" value="&lt;font style=&quot;font-size: 15px;&quot;&gt;ID / PW&lt;/font&gt;&lt;div&gt;&lt;font style=&quot;font-size: 15px;&quot;&gt;입력&lt;/font&gt;&lt;/div&gt;" style="shape=parallelogram;html=1;strokeWidth=2;perimeter=parallelogramPerimeter;whiteSpace=wrap;rounded=1;arcSize=12;size=0.23;" vertex="1" parent="1">
          <mxGeometry x="427" y="420" width="100" height="60" as="geometry" />
        </mxCell>
        <mxCell id="igjqlshMGf3NSqNS0H5_-13" value="" style="edgeStyle=orthogonalEdgeStyle;rounded=0;orthogonalLoop=1;jettySize=auto;html=1;" edge="1" parent="1" source="igjqlshMGf3NSqNS0H5_-9" target="igjqlshMGf3NSqNS0H5_-11">
          <mxGeometry relative="1" as="geometry" />
        </mxCell>
        <mxCell id="igjqlshMGf3NSqNS0H5_-9" value="&lt;font style=&quot;font-size: 15px;&quot;&gt;TBL_&lt;span style=&quot;background-color: transparent; color: light-dark(rgb(0, 0, 0), rgb(255, 255, 255));&quot;&gt;USER&lt;/span&gt;&lt;/font&gt;" style="strokeWidth=2;html=1;shape=mxgraph.flowchart.database;whiteSpace=wrap;" vertex="1" parent="1">
          <mxGeometry x="583" y="420" width="80" height="60" as="geometry" />
        </mxCell>
        <mxCell id="igjqlshMGf3NSqNS0H5_-19" value="" style="edgeStyle=orthogonalEdgeStyle;rounded=0;orthogonalLoop=1;jettySize=auto;html=1;" edge="1" parent="1" source="igjqlshMGf3NSqNS0H5_-11" target="igjqlshMGf3NSqNS0H5_-18">
          <mxGeometry relative="1" as="geometry" />
        </mxCell>
        <mxCell id="igjqlshMGf3NSqNS0H5_-11" value="&lt;font&gt;동일 ID가&lt;/font&gt;&lt;div&gt;&lt;font&gt;있는지?&lt;/font&gt;&lt;/div&gt;" style="strokeWidth=2;html=1;shape=mxgraph.flowchart.decision;whiteSpace=wrap;" vertex="1" parent="1">
          <mxGeometry x="583" y="530" width="80" height="80" as="geometry" />
        </mxCell>
        <mxCell id="igjqlshMGf3NSqNS0H5_-14" value="" style="endArrow=classic;html=1;rounded=0;entryX=1;entryY=0.5;entryDx=0;entryDy=0;entryPerimeter=0;exitX=1;exitY=0.5;exitDx=0;exitDy=0;exitPerimeter=0;" edge="1" parent="1" source="igjqlshMGf3NSqNS0H5_-11" target="igjqlshMGf3NSqNS0H5_-4">
          <mxGeometry width="50" height="50" relative="1" as="geometry">
            <mxPoint x="443" y="520" as="sourcePoint" />
            <mxPoint x="493" y="470" as="targetPoint" />
            <Array as="points">
              <mxPoint x="733" y="570" />
              <mxPoint x="733" y="450" />
              <mxPoint x="733" y="340" />
            </Array>
          </mxGeometry>
        </mxCell>
        <mxCell id="igjqlshMGf3NSqNS0H5_-15" value="&lt;font style=&quot;font-size: 15px;&quot;&gt;NO&lt;/font&gt;" style="text;html=1;align=center;verticalAlign=middle;resizable=0;points=[];autosize=1;strokeColor=none;fillColor=none;" vertex="1" parent="1">
          <mxGeometry x="653" y="540" width="50" height="30" as="geometry" />
        </mxCell>
        <mxCell id="igjqlshMGf3NSqNS0H5_-16" value="&lt;font style=&quot;font-size: 15px;&quot;&gt;YES&lt;/font&gt;" style="text;html=1;align=center;verticalAlign=middle;resizable=0;points=[];autosize=1;strokeColor=none;fillColor=none;" vertex="1" parent="1">
          <mxGeometry x="623" y="600" width="50" height="30" as="geometry" />
        </mxCell>
        <mxCell id="igjqlshMGf3NSqNS0H5_-17" value="&lt;p style=&quot;margin:0px;margin-top:4px;text-align:center;&quot;&gt;&lt;b&gt;MESSAGE&lt;/b&gt;&lt;/p&gt;&lt;p style=&quot;margin:0px;margin-top:4px;text-align:center;&quot;&gt;동일한 ID가 없습니다.&lt;/p&gt;" style="verticalAlign=top;align=left;overflow=fill;html=1;whiteSpace=wrap;" vertex="1" parent="1">
          <mxGeometry x="673" y="490" width="120" height="40" as="geometry" />
        </mxCell>
        <mxCell id="igjqlshMGf3NSqNS0H5_-25" value="" style="edgeStyle=orthogonalEdgeStyle;rounded=0;orthogonalLoop=1;jettySize=auto;html=1;" edge="1" parent="1" source="igjqlshMGf3NSqNS0H5_-18" target="igjqlshMGf3NSqNS0H5_-24">
          <mxGeometry relative="1" as="geometry" />
        </mxCell>
        <mxCell id="igjqlshMGf3NSqNS0H5_-18" value="PW&lt;br&gt;&lt;div&gt;일치&lt;/div&gt;" style="strokeWidth=2;html=1;shape=mxgraph.flowchart.decision;whiteSpace=wrap;" vertex="1" parent="1">
          <mxGeometry x="583" y="690" width="80" height="80" as="geometry" />
        </mxCell>
        <mxCell id="igjqlshMGf3NSqNS0H5_-20" value="" style="endArrow=none;html=1;rounded=0;exitX=1;exitY=0.5;exitDx=0;exitDy=0;exitPerimeter=0;" edge="1" parent="1" source="igjqlshMGf3NSqNS0H5_-18">
          <mxGeometry width="50" height="50" relative="1" as="geometry">
            <mxPoint x="693" y="735" as="sourcePoint" />
            <mxPoint x="733" y="570" as="targetPoint" />
            <Array as="points">
              <mxPoint x="733" y="730" />
            </Array>
          </mxGeometry>
        </mxCell>
        <mxCell id="igjqlshMGf3NSqNS0H5_-21" value="&lt;font style=&quot;font-size: 15px;&quot;&gt;NO&lt;/font&gt;" style="text;html=1;align=center;verticalAlign=middle;resizable=0;points=[];autosize=1;strokeColor=none;fillColor=none;" vertex="1" parent="1">
          <mxGeometry x="653" y="700" width="50" height="30" as="geometry" />
        </mxCell>
        <mxCell id="igjqlshMGf3NSqNS0H5_-22" value="&lt;font style=&quot;font-size: 15px;&quot;&gt;YES&lt;/font&gt;" style="text;html=1;align=center;verticalAlign=middle;resizable=0;points=[];autosize=1;strokeColor=none;fillColor=none;" vertex="1" parent="1">
          <mxGeometry x="543" y="730" width="50" height="30" as="geometry" />
        </mxCell>
        <mxCell id="igjqlshMGf3NSqNS0H5_-23" value="&lt;p style=&quot;margin:0px;margin-top:4px;text-align:center;&quot;&gt;&lt;b&gt;MESSAGE&lt;/b&gt;&lt;/p&gt;&lt;p style=&quot;margin:0px;margin-top:4px;text-align:center;&quot;&gt;PW가 일치하지 않습니다.&lt;/p&gt;" style="verticalAlign=top;align=left;overflow=fill;html=1;whiteSpace=wrap;" vertex="1" parent="1">
          <mxGeometry x="663" y="650" width="140" height="40" as="geometry" />
        </mxCell>
        <mxCell id="igjqlshMGf3NSqNS0H5_-26" value="" style="edgeStyle=orthogonalEdgeStyle;rounded=0;orthogonalLoop=1;jettySize=auto;html=1;" edge="1" parent="1" source="igjqlshMGf3NSqNS0H5_-24" target="igjqlshMGf3NSqNS0H5_-3">
          <mxGeometry relative="1" as="geometry" />
        </mxCell>
        <mxCell id="igjqlshMGf3NSqNS0H5_-24" value="&lt;font style=&quot;font-size: 15px;&quot;&gt;로그인 처리&lt;/font&gt;" style="whiteSpace=wrap;html=1;strokeWidth=2;" vertex="1" parent="1">
          <mxGeometry x="417" y="700" width="120" height="60" as="geometry" />
        </mxCell>
        <mxCell id="igjqlshMGf3NSqNS0H5_-28" value="&lt;p style=&quot;margin:0px;margin-top:4px;text-align:center;&quot;&gt;&lt;b&gt;로그인 성공 !&lt;/b&gt;&lt;/p&gt;&lt;p style=&quot;margin:0px;margin-top:4px;text-align:center;&quot;&gt;&lt;b&gt;메인페이지로 이동합니다.&lt;/b&gt;&lt;/p&gt;" style="verticalAlign=top;align=left;overflow=fill;html=1;whiteSpace=wrap;" vertex="1" parent="1">
          <mxGeometry x="407" y="800" width="140" height="40" as="geometry" />
        </mxCell>
        <mxCell id="igjqlshMGf3NSqNS0H5_-29" value="" style="shape=image;verticalLabelPosition=bottom;labelBackgroundColor=default;verticalAlign=top;aspect=fixed;imageAspect=0;image=https://images.edrawsoft.com/kr/articles/edrawmax/flowchart/flowchart-2.PNG;" vertex="1" parent="1">
          <mxGeometry x="24" y="320" width="383" height="390" as="geometry" />
        </mxCell>
        <mxCell id="igjqlshMGf3NSqNS0H5_-30" value="&lt;font style=&quot;font-size: 15px;&quot;&gt;애완용품 구매 Flow-Chart&lt;/font&gt;" style="text;html=1;align=center;verticalAlign=middle;resizable=0;points=[];autosize=1;strokeColor=none;fillColor=none;" vertex="1" parent="1">
          <mxGeometry x="40" y="1170" width="200" height="30" as="geometry" />
        </mxCell>
        <mxCell id="igjqlshMGf3NSqNS0H5_-35" value="" style="edgeStyle=orthogonalEdgeStyle;rounded=0;orthogonalLoop=1;jettySize=auto;html=1;" edge="1" parent="1" source="igjqlshMGf3NSqNS0H5_-31" target="igjqlshMGf3NSqNS0H5_-33">
          <mxGeometry relative="1" as="geometry" />
        </mxCell>
        <mxCell id="igjqlshMGf3NSqNS0H5_-31" value="&lt;font style=&quot;font-size: 15px;&quot;&gt;시작&lt;/font&gt;" style="strokeWidth=2;html=1;shape=mxgraph.flowchart.terminator;whiteSpace=wrap;" vertex="1" parent="1">
          <mxGeometry x="84" y="1220" width="100" height="60" as="geometry" />
        </mxCell>
        <mxCell id="igjqlshMGf3NSqNS0H5_-36" value="" style="edgeStyle=orthogonalEdgeStyle;rounded=0;orthogonalLoop=1;jettySize=auto;html=1;" edge="1" parent="1" source="igjqlshMGf3NSqNS0H5_-33" target="igjqlshMGf3NSqNS0H5_-34">
          <mxGeometry relative="1" as="geometry" />
        </mxCell>
        <mxCell id="igjqlshMGf3NSqNS0H5_-33" value="&lt;font style=&quot;font-size: 15px;&quot;&gt;애완 용품&lt;/font&gt;&lt;div&gt;&lt;font style=&quot;font-size: 15px;&quot;&gt;상세 페이지&lt;/font&gt;&lt;/div&gt;" style="strokeWidth=2;html=1;shape=mxgraph.flowchart.document2;whiteSpace=wrap;size=0.25;" vertex="1" parent="1">
          <mxGeometry x="84" y="1320" width="100" height="60" as="geometry" />
        </mxCell>
        <mxCell id="igjqlshMGf3NSqNS0H5_-43" value="" style="edgeStyle=orthogonalEdgeStyle;rounded=0;orthogonalLoop=1;jettySize=auto;html=1;" edge="1" parent="1" source="igjqlshMGf3NSqNS0H5_-34" target="igjqlshMGf3NSqNS0H5_-42">
          <mxGeometry relative="1" as="geometry" />
        </mxCell>
        <mxCell id="igjqlshMGf3NSqNS0H5_-34" value="&lt;font style=&quot;font-size: 15px;&quot;&gt;구매 요청&lt;/font&gt;" style="shape=parallelogram;html=1;strokeWidth=2;perimeter=parallelogramPerimeter;whiteSpace=wrap;rounded=1;arcSize=12;size=0.23;" vertex="1" parent="1">
          <mxGeometry x="84" y="1430" width="100" height="60" as="geometry" />
        </mxCell>
        <mxCell id="igjqlshMGf3NSqNS0H5_-45" value="" style="edgeStyle=orthogonalEdgeStyle;rounded=0;orthogonalLoop=1;jettySize=auto;html=1;" edge="1" parent="1" source="igjqlshMGf3NSqNS0H5_-37" target="igjqlshMGf3NSqNS0H5_-39">
          <mxGeometry relative="1" as="geometry" />
        </mxCell>
        <mxCell id="igjqlshMGf3NSqNS0H5_-68" value="" style="edgeStyle=orthogonalEdgeStyle;rounded=0;orthogonalLoop=1;jettySize=auto;html=1;" edge="1" parent="1" source="igjqlshMGf3NSqNS0H5_-37" target="igjqlshMGf3NSqNS0H5_-67">
          <mxGeometry relative="1" as="geometry" />
        </mxCell>
        <mxCell id="igjqlshMGf3NSqNS0H5_-37" value="로그인&lt;div&gt;상태&lt;/div&gt;" style="strokeWidth=2;html=1;shape=mxgraph.flowchart.decision;whiteSpace=wrap;" vertex="1" parent="1">
          <mxGeometry x="240" y="1550" width="80" height="80" as="geometry" />
        </mxCell>
        <mxCell id="igjqlshMGf3NSqNS0H5_-38" value="&lt;font style=&quot;font-size: 15px;&quot;&gt;끝&lt;/font&gt;" style="strokeWidth=2;html=1;shape=mxgraph.flowchart.terminator;whiteSpace=wrap;" vertex="1" parent="1">
          <mxGeometry x="84" y="2260" width="100" height="60" as="geometry" />
        </mxCell>
        <mxCell id="igjqlshMGf3NSqNS0H5_-52" value="" style="edgeStyle=orthogonalEdgeStyle;rounded=0;orthogonalLoop=1;jettySize=auto;html=1;" edge="1" parent="1" source="igjqlshMGf3NSqNS0H5_-39" target="igjqlshMGf3NSqNS0H5_-50">
          <mxGeometry relative="1" as="geometry" />
        </mxCell>
        <mxCell id="igjqlshMGf3NSqNS0H5_-79" value="" style="edgeStyle=orthogonalEdgeStyle;rounded=0;orthogonalLoop=1;jettySize=auto;html=1;" edge="1" parent="1" source="igjqlshMGf3NSqNS0H5_-39" target="igjqlshMGf3NSqNS0H5_-78">
          <mxGeometry relative="1" as="geometry" />
        </mxCell>
        <mxCell id="igjqlshMGf3NSqNS0H5_-39" value="&lt;font&gt;구매자&lt;/font&gt;&lt;div&gt;&lt;font&gt;계정&lt;/font&gt;&lt;/div&gt;" style="strokeWidth=2;html=1;shape=mxgraph.flowchart.decision;whiteSpace=wrap;" vertex="1" parent="1">
          <mxGeometry x="240" y="1670" width="80" height="80" as="geometry" />
        </mxCell>
        <mxCell id="igjqlshMGf3NSqNS0H5_-57" value="" style="edgeStyle=orthogonalEdgeStyle;rounded=0;orthogonalLoop=1;jettySize=auto;html=1;" edge="1" parent="1" source="igjqlshMGf3NSqNS0H5_-40" target="igjqlshMGf3NSqNS0H5_-56">
          <mxGeometry relative="1" as="geometry" />
        </mxCell>
        <mxCell id="igjqlshMGf3NSqNS0H5_-40" value="재고&lt;div&gt;여부&lt;/div&gt;" style="strokeWidth=2;html=1;shape=mxgraph.flowchart.decision;whiteSpace=wrap;" vertex="1" parent="1">
          <mxGeometry x="408.5" y="1910" width="80" height="80" as="geometry" />
        </mxCell>
        <mxCell id="igjqlshMGf3NSqNS0H5_-55" value="" style="edgeStyle=orthogonalEdgeStyle;rounded=0;orthogonalLoop=1;jettySize=auto;html=1;" edge="1" parent="1" source="igjqlshMGf3NSqNS0H5_-41" target="igjqlshMGf3NSqNS0H5_-40">
          <mxGeometry relative="1" as="geometry" />
        </mxCell>
        <mxCell id="igjqlshMGf3NSqNS0H5_-41" value="&lt;font style=&quot;font-size: 15px;&quot;&gt;TBL_PROD&lt;/font&gt;" style="strokeWidth=2;html=1;shape=mxgraph.flowchart.database;whiteSpace=wrap;" vertex="1" parent="1">
          <mxGeometry x="400" y="1800" width="97" height="60" as="geometry" />
        </mxCell>
        <mxCell id="igjqlshMGf3NSqNS0H5_-44" value="" style="edgeStyle=orthogonalEdgeStyle;rounded=0;orthogonalLoop=1;jettySize=auto;html=1;" edge="1" parent="1" source="igjqlshMGf3NSqNS0H5_-42" target="igjqlshMGf3NSqNS0H5_-37">
          <mxGeometry relative="1" as="geometry" />
        </mxCell>
        <mxCell id="igjqlshMGf3NSqNS0H5_-42" value="&lt;font style=&quot;font-size: 15px;&quot;&gt;구매 처리&lt;/font&gt;" style="rounded=1;whiteSpace=wrap;html=1;absoluteArcSize=1;arcSize=14;strokeWidth=2;" vertex="1" parent="1">
          <mxGeometry x="84" y="1560" width="100" height="60" as="geometry" />
        </mxCell>
        <mxCell id="igjqlshMGf3NSqNS0H5_-49" value="&lt;font style=&quot;font-size: 15px;&quot;&gt;YES&lt;/font&gt;" style="text;html=1;align=center;verticalAlign=middle;resizable=0;points=[];autosize=1;strokeColor=none;fillColor=none;" vertex="1" parent="1">
          <mxGeometry x="280" y="1740" width="50" height="30" as="geometry" />
        </mxCell>
        <mxCell id="igjqlshMGf3NSqNS0H5_-54" value="" style="edgeStyle=orthogonalEdgeStyle;rounded=0;orthogonalLoop=1;jettySize=auto;html=1;" edge="1" parent="1" source="igjqlshMGf3NSqNS0H5_-50" target="igjqlshMGf3NSqNS0H5_-41">
          <mxGeometry relative="1" as="geometry" />
        </mxCell>
        <mxCell id="igjqlshMGf3NSqNS0H5_-50" value="&lt;font style=&quot;font-size: 15px;&quot;&gt;재고 확인&lt;/font&gt;" style="rounded=1;whiteSpace=wrap;html=1;absoluteArcSize=1;arcSize=14;strokeWidth=2;" vertex="1" parent="1">
          <mxGeometry x="230" y="1800" width="100" height="60" as="geometry" />
        </mxCell>
        <mxCell id="igjqlshMGf3NSqNS0H5_-62" value="" style="edgeStyle=orthogonalEdgeStyle;rounded=0;orthogonalLoop=1;jettySize=auto;html=1;" edge="1" parent="1" source="igjqlshMGf3NSqNS0H5_-56" target="igjqlshMGf3NSqNS0H5_-61">
          <mxGeometry relative="1" as="geometry" />
        </mxCell>
        <mxCell id="igjqlshMGf3NSqNS0H5_-56" value="&lt;font style=&quot;font-size: 15px;&quot;&gt;결제 요청 처리&lt;/font&gt;" style="rounded=1;whiteSpace=wrap;html=1;absoluteArcSize=1;arcSize=14;strokeWidth=2;" vertex="1" parent="1">
          <mxGeometry x="81" y="1920" width="106" height="60" as="geometry" />
        </mxCell>
        <mxCell id="igjqlshMGf3NSqNS0H5_-58" value="&lt;font style=&quot;font-size: 15px;&quot;&gt;YES&lt;/font&gt;" style="text;html=1;align=center;verticalAlign=middle;resizable=0;points=[];autosize=1;strokeColor=none;fillColor=none;" vertex="1" parent="1">
          <mxGeometry x="367" y="1920" width="50" height="30" as="geometry" />
        </mxCell>
        <mxCell id="igjqlshMGf3NSqNS0H5_-59" value="&lt;font style=&quot;font-size: 15px;&quot;&gt;YES&lt;/font&gt;" style="text;html=1;align=center;verticalAlign=middle;resizable=0;points=[];autosize=1;strokeColor=none;fillColor=none;" vertex="1" parent="1">
          <mxGeometry x="280" y="1620" width="50" height="30" as="geometry" />
        </mxCell>
        <mxCell id="igjqlshMGf3NSqNS0H5_-64" value="" style="edgeStyle=orthogonalEdgeStyle;rounded=0;orthogonalLoop=1;jettySize=auto;html=1;" edge="1" parent="1" source="igjqlshMGf3NSqNS0H5_-60" target="igjqlshMGf3NSqNS0H5_-38">
          <mxGeometry relative="1" as="geometry" />
        </mxCell>
        <mxCell id="igjqlshMGf3NSqNS0H5_-60" value="&lt;font style=&quot;font-size: 15px;&quot;&gt;결제 창&lt;/font&gt;" style="strokeWidth=2;html=1;shape=mxgraph.flowchart.document2;whiteSpace=wrap;size=0.25;" vertex="1" parent="1">
          <mxGeometry x="84" y="2140" width="100" height="60" as="geometry" />
        </mxCell>
        <mxCell id="igjqlshMGf3NSqNS0H5_-63" value="" style="edgeStyle=orthogonalEdgeStyle;rounded=0;orthogonalLoop=1;jettySize=auto;html=1;" edge="1" parent="1" source="igjqlshMGf3NSqNS0H5_-61" target="igjqlshMGf3NSqNS0H5_-60">
          <mxGeometry relative="1" as="geometry" />
        </mxCell>
        <mxCell id="igjqlshMGf3NSqNS0H5_-61" value="올바르게&lt;div&gt;결제처리가&lt;/div&gt;&lt;div&gt;되었는가&lt;/div&gt;" style="strokeWidth=2;html=1;shape=mxgraph.flowchart.decision;whiteSpace=wrap;" vertex="1" parent="1">
          <mxGeometry x="94" y="2010" width="80" height="80" as="geometry" />
        </mxCell>
        <mxCell id="igjqlshMGf3NSqNS0H5_-77" value="" style="edgeStyle=orthogonalEdgeStyle;rounded=0;orthogonalLoop=1;jettySize=auto;html=1;" edge="1" parent="1" source="igjqlshMGf3NSqNS0H5_-67" target="igjqlshMGf3NSqNS0H5_-76">
          <mxGeometry relative="1" as="geometry" />
        </mxCell>
        <mxCell id="igjqlshMGf3NSqNS0H5_-67" value="&lt;font style=&quot;font-size: 15px;&quot;&gt;로그인 페이지&lt;/font&gt;&lt;div&gt;&lt;font style=&quot;font-size: 15px;&quot;&gt;이동 처리&lt;/font&gt;&lt;/div&gt;" style="rounded=1;whiteSpace=wrap;html=1;absoluteArcSize=1;arcSize=14;strokeWidth=2;" vertex="1" parent="1">
          <mxGeometry x="400" y="1560" width="100" height="60" as="geometry" />
        </mxCell>
        <mxCell id="igjqlshMGf3NSqNS0H5_-69" value="&lt;font style=&quot;font-size: 15px;&quot;&gt;NO&lt;/font&gt;" style="text;html=1;align=center;verticalAlign=middle;resizable=0;points=[];autosize=1;strokeColor=none;fillColor=none;" vertex="1" parent="1">
          <mxGeometry x="308.5" y="1560" width="50" height="30" as="geometry" />
        </mxCell>
        <mxCell id="igjqlshMGf3NSqNS0H5_-73" value="&lt;span style=&quot;font-size: 15px;&quot;&gt;구매자 계정&lt;/span&gt;&lt;div&gt;&lt;span style=&quot;font-size: 15px;&quot;&gt;전환 페이지&lt;/span&gt;&lt;/div&gt;" style="strokeWidth=2;html=1;shape=mxgraph.flowchart.document2;whiteSpace=wrap;size=0.25;" vertex="1" parent="1">
          <mxGeometry x="563" y="1680" width="100" height="60" as="geometry" />
        </mxCell>
        <mxCell id="igjqlshMGf3NSqNS0H5_-75" value="&lt;font style=&quot;font-size: 15px;&quot;&gt;NO&lt;/font&gt;" style="text;html=1;align=center;verticalAlign=middle;resizable=0;points=[];autosize=1;strokeColor=none;fillColor=none;" vertex="1" parent="1">
          <mxGeometry x="308.5" y="1680" width="50" height="30" as="geometry" />
        </mxCell>
        <mxCell id="igjqlshMGf3NSqNS0H5_-76" value="&lt;span style=&quot;font-size: 15px;&quot;&gt;로그인 페이지&lt;/span&gt;" style="strokeWidth=2;html=1;shape=mxgraph.flowchart.document2;whiteSpace=wrap;size=0.25;" vertex="1" parent="1">
          <mxGeometry x="563" y="1560" width="100" height="60" as="geometry" />
        </mxCell>
        <mxCell id="igjqlshMGf3NSqNS0H5_-80" value="" style="edgeStyle=orthogonalEdgeStyle;rounded=0;orthogonalLoop=1;jettySize=auto;html=1;" edge="1" parent="1" source="igjqlshMGf3NSqNS0H5_-78" target="igjqlshMGf3NSqNS0H5_-73">
          <mxGeometry relative="1" as="geometry" />
        </mxCell>
        <mxCell id="igjqlshMGf3NSqNS0H5_-78" value="&lt;span style=&quot;font-size: 15px;&quot;&gt;구매자 계정&lt;/span&gt;&lt;div&gt;&lt;span style=&quot;font-size: 15px;&quot;&gt;전환 페이지로&lt;/span&gt;&lt;/div&gt;&lt;div&gt;&lt;span style=&quot;font-size: 15px;&quot;&gt;이동 처리&lt;/span&gt;&lt;/div&gt;" style="rounded=1;whiteSpace=wrap;html=1;absoluteArcSize=1;arcSize=14;strokeWidth=2;" vertex="1" parent="1">
          <mxGeometry x="400" y="1680" width="100" height="60" as="geometry" />
        </mxCell>
        <mxCell id="igjqlshMGf3NSqNS0H5_-82" value="" style="endArrow=classic;html=1;rounded=0;exitX=1;exitY=0.5;exitDx=0;exitDy=0;exitPerimeter=0;entryX=1;entryY=0.5;entryDx=0;entryDy=0;entryPerimeter=0;" edge="1" parent="1" source="igjqlshMGf3NSqNS0H5_-40" target="igjqlshMGf3NSqNS0H5_-33">
          <mxGeometry width="50" height="50" relative="1" as="geometry">
            <mxPoint x="280" y="1780" as="sourcePoint" />
            <mxPoint x="640" y="1830" as="targetPoint" />
            <Array as="points">
              <mxPoint x="700" y="1950" />
              <mxPoint x="700" y="1350" />
            </Array>
          </mxGeometry>
        </mxCell>
        <mxCell id="igjqlshMGf3NSqNS0H5_-83" value="&lt;font style=&quot;font-size: 15px;&quot;&gt;NO&lt;/font&gt;" style="text;html=1;align=center;verticalAlign=middle;resizable=0;points=[];autosize=1;strokeColor=none;fillColor=none;" vertex="1" parent="1">
          <mxGeometry x="477" y="1920" width="50" height="30" as="geometry" />
        </mxCell>
        <mxCell id="igjqlshMGf3NSqNS0H5_-84" value="&lt;p style=&quot;margin:0px;margin-top:4px;text-align:center;&quot;&gt;&lt;b&gt;MESSAGE&lt;/b&gt;&lt;/p&gt;&lt;p style=&quot;margin:0px;margin-top:4px;text-align:center;&quot;&gt;재고가 부족합니다.&lt;/p&gt;" style="verticalAlign=top;align=left;overflow=fill;html=1;whiteSpace=wrap;" vertex="1" parent="1">
          <mxGeometry x="630" y="1830" width="140" height="40" as="geometry" />
        </mxCell>
      </root>
    </mxGraphModel>
  </diagram>
</mxfile>
